# xmcd
#
# Track frame offsets: 
#        150
#        7515
#        22793
#        38095
#        53356
#        68990
#        86477
#        102119
#        122243
#        137827
#        151171
#        169288
#        186707
#        195405
#        214586
#
# Disc length: 3049 seconds
#
# Revision: 0
# Processed by: cddbd v1.5.2PL0 Copyright (c) Steve Scherf et al.
# Submitted via: ExactAudioCopy v0.99pb5
#
DISCID=b80be70f
DTITLE=Ray J - All I Feel
DYEAR=2008
DGENRE=R&B
TTITLE0=Don't Wanna Be Right (Intro)
TTITLE1=I Like To Rock
TTITLE2=Sexy Can I (feat. Yung Berg)
TTITLE3=Gifts
TTITLE4=Girl From The Bronx
TTITLE5=Jump Off
TTITLE6=Boyfriend
TTITLE7=All I Feel
TTITLE8=It's Up To You
TTITLE9=Where You At (feat. The Game)
TTITLE10=Real Nigga (feat. Styles P)
TTITLE11=Good Girl Gone Bad (feat. Shorty Mack)
TTITLE12=I Can Feel It (Outro)
TTITLE13=Good Times (feat. Shorty Mack) (Bonus Track)
TTITLE14=Everywhere We Go (Bonus Track)
EXTD=
EXTT0=
EXTT1=
EXTT2=
EXTT3=
EXTT4=
EXTT5=
EXTT6=
EXTT7=
EXTT8=
EXTT9=
EXTT10=
EXTT11=
EXTT12=
EXTT13=
EXTT14=
PLAYORDER=
